<svg width="22" height="20" viewBox="0 0 22 20" fill="none" xmlns="http://www.w3.org/2000/svg">
<path d="M9.00551 19H13.2851M18.6346 19V3C18.6346 2.46957 18.4091 1.96086 18.0078 1.58579C17.6066 1.21071 17.0623 1 16.4948 1H5.79582C5.22831 1 4.68405 1.21071 4.28276 1.58579C3.88147 1.96086 3.65603 2.46957 3.65603 3V19H18.6346ZM18.6346 19H20.7744H18.6346ZM18.6346 19H13.2851H18.6346ZM3.65603 19H1.51624H3.65603ZM3.65603 19H9.00551H3.65603ZM7.93561 5H9.00551H7.93561ZM7.93561 9H9.00551H7.93561ZM13.2851 5H14.355H13.2851ZM13.2851 9H14.355H13.2851ZM9.00551 19V14C9.00551 13.7348 9.11823 13.4804 9.31887 13.2929C9.51952 13.1054 9.79165 13 10.0754 13H12.2152C12.499 13 12.7711 13.1054 12.9717 13.2929C13.1724 13.4804 13.2851 13.7348 13.2851 14V19H9.00551Z" stroke="#CCCCCC" stroke-width="2" stroke-linecap="round" stroke-linejoin="round"/>
</svg>
