<svg width="21" height="19" viewBox="0 0 21 19" fill="none" xmlns="http://www.w3.org/2000/svg">
<path d="M12.9675 0C13.986 0.0104883 14.8155 0.534906 15.2985 1.47886C15.4232 1.72795 15.5971 2.09177 15.7792 2.47556L15.999 2.93963L16.107 3.16748L16.212 3.39822C16.254 3.47164 16.3275 3.52408 16.422 3.52408C18.942 3.52408 21 5.5798 21 8.097V14.3271C21 16.8443 18.942 18.9 16.422 18.9H4.578C2.0475 18.9 0 16.8443 0 14.3271V8.097C0 5.5798 2.0475 3.52408 4.578 3.52408C4.662 3.52408 4.746 3.48213 4.7775 3.39822L4.8405 3.27236C5.1345 2.65355 5.4915 1.89839 5.7015 1.47886C6.1845 0.534906 7.0035 0.0104883 8.022 0H12.9675ZM10.5 6.72303C9.3975 6.72303 8.358 7.15305 7.5705 7.93968C6.7935 8.7263 6.363 9.75416 6.3735 10.8449C6.3735 11.9462 6.804 12.9741 7.581 13.7607C8.3685 14.5368 9.3975 14.9669 10.5 14.9669C11.634 14.9669 12.663 14.5054 13.4085 13.7607C14.154 13.016 14.616 11.9882 14.6265 10.8449C14.6265 9.75416 14.196 8.71582 13.419 7.92919C12.642 7.15305 11.6025 6.72303 10.5 6.72303ZM10.5 8.29628C11.1825 8.29628 11.823 8.55849 12.306 9.04095C12.789 9.52342 13.0515 10.1632 13.0515 10.8449C13.041 12.2504 11.907 13.3936 10.5 13.3936C9.8175 13.3936 9.177 13.1314 8.694 12.6489C8.211 12.1665 7.9485 11.5267 7.9485 10.8449V10.8345C7.938 10.1737 8.2005 9.53391 8.6835 9.05144C9.177 8.55849 9.8175 8.29628 10.5 8.29628ZM16.3905 6.47131C15.8655 6.47131 15.4455 6.90133 15.4455 7.42575C15.4455 7.95017 15.8655 8.3697 16.3905 8.3697C16.9155 8.3697 17.346 7.95017 17.346 7.42575C17.346 6.90133 16.9155 6.47131 16.3905 6.47131Z" fill="#FFF2EC"/>
</svg>
