<svg width="18" height="20" viewBox="0 0 18 20" fill="none" xmlns="http://www.w3.org/2000/svg">
<path d="M5.79582 14H5.80652M5.79582 3H3.65603C3.08852 3 2.54425 3.21071 2.14297 3.58579C1.74168 3.96086 1.51624 4.46957 1.51624 5V17C1.51624 17.5304 1.74168 18.0391 2.14297 18.4142C2.54425 18.7893 3.08852 19 3.65603 19H14.355C14.9225 19 15.4668 18.7893 15.8681 18.4142C16.2693 18.0391 16.4948 17.5304 16.4948 17V5C16.4948 4.46957 16.2693 3.96086 15.8681 3.58579C15.4668 3.21071 14.9225 3 14.355 3H12.2152H5.79582ZM5.79582 3C5.79582 3.53043 6.02126 4.03914 6.42255 4.41421C6.82384 4.78929 7.3681 5 7.93561 5H10.0754C10.6429 5 11.1872 4.78929 11.5885 4.41421C11.9898 4.03914 12.2152 3.53043 12.2152 3H5.79582ZM5.79582 3C5.79582 2.46957 6.02126 1.96086 6.42255 1.58579C6.82384 1.21071 7.3681 1 7.93561 1H10.0754C10.6429 1 11.1872 1.21071 11.5885 1.58579C11.9898 1.96086 12.2152 2.46957 12.2152 3H5.79582ZM9.00551 10H12.2152H9.00551ZM9.00551 14H12.2152H9.00551ZM5.79582 10H5.80652H5.79582Z" stroke="#CCCCCC" stroke-width="2" stroke-linecap="round" stroke-linejoin="round"/>
</svg>
