<svg width="24" height="25" viewBox="0 0 24 25" fill="none" xmlns="http://www.w3.org/2000/svg">
<path d="M16.3565 20.2646H21.3565V18.2646C21.3565 17.6412 21.1622 17.0332 20.8006 16.5253C20.4391 16.0173 19.9283 15.6346 19.3393 15.4304C18.7502 15.2262 18.1121 15.2105 17.5138 15.3857C16.9154 15.5608 16.3865 15.918 16.0005 16.4076L16.3565 20.2646ZM16.3565 20.2646H6.35651H16.3565ZM16.3565 20.2646V18.2646C16.3565 17.6086 16.2305 16.9816 16.0005 16.4076L16.3565 20.2646ZM6.35651 20.2646H1.35651V18.2646C1.35655 17.6412 1.55084 17.0332 1.91237 16.5253C2.27389 16.0173 2.78469 15.6346 3.37376 15.4304C3.96282 15.2262 4.60088 15.2105 5.19924 15.3857C5.79761 15.5608 6.32654 15.918 6.71251 16.4076L6.35651 20.2646ZM6.35651 20.2646V18.2646C6.35651 17.6086 6.48251 16.9816 6.71251 16.4076L6.35651 20.2646ZM6.71251 16.4076C7.08386 15.4796 7.72475 14.6841 8.55251 14.1238C9.38027 13.5634 10.3569 13.2639 11.3565 13.2639C12.3561 13.2639 13.3327 13.5634 14.1605 14.1238C14.9883 14.6841 15.6291 15.4796 16.0005 16.4076H6.71251ZM14.3565 7.26465C14.3565 8.0603 14.0404 8.82336 13.4778 9.38597C12.9152 9.94858 12.1522 10.2646 11.3565 10.2646C10.5609 10.2646 9.79779 9.94858 9.23519 9.38597C8.67258 8.82336 8.35651 8.0603 8.35651 7.26465C8.35651 6.469 8.67258 5.70594 9.23519 5.14333C9.79779 4.58072 10.5609 4.26465 11.3565 4.26465C12.1522 4.26465 12.9152 4.58072 13.4778 5.14333C14.0404 5.70594 14.3565 6.469 14.3565 7.26465V7.26465ZM20.3565 10.2646C20.3565 10.7951 20.1458 11.3038 19.7707 11.6789C19.3956 12.0539 18.8869 12.2646 18.3565 12.2646C17.8261 12.2646 17.3174 12.0539 16.9423 11.6789C16.5672 11.3038 16.3565 10.7951 16.3565 10.2646C16.3565 9.73422 16.5672 9.22551 16.9423 8.85044C17.3174 8.47536 17.8261 8.26465 18.3565 8.26465C18.8869 8.26465 19.3956 8.47536 19.7707 8.85044C20.1458 9.22551 20.3565 9.73422 20.3565 10.2646ZM6.35651 10.2646C6.35651 10.7951 6.14579 11.3038 5.77072 11.6789C5.39565 12.0539 4.88694 12.2646 4.35651 12.2646C3.82607 12.2646 3.31737 12.0539 2.94229 11.6789C2.56722 11.3038 2.35651 10.7951 2.35651 10.2646C2.35651 9.73422 2.56722 9.22551 2.94229 8.85044C3.31737 8.47536 3.82607 8.26465 4.35651 8.26465C4.88694 8.26465 5.39565 8.47536 5.77072 8.85044C6.14579 9.22551 6.35651 9.73422 6.35651 10.2646Z" stroke="#CCCCCC" stroke-width="2" stroke-linecap="round" stroke-linejoin="round"/>
</svg>
